<mxfile modified="2022-05-20T02:24:57.426Z" host="app.diagrams.net" agent="5.0 (Windows NT 10.0; Win64; x64) AppleWebKit/537.36 (KHTML, like Gecko) Chrome/101.0.4951.54 Safari/537.36" etag="7XGTO9yFaHX3P8FLGAzw" compressed="false" version="18.0.8" type="google">
  <diagram name="Integration/System Logical Module/API/Resource URLs/Organisations" id="3NlfmTs0fXYKqxvSfJpg">
    <mxGraphModel grid="1" page="1" gridSize="10" guides="1" tooltips="1" connect="1" arrows="1" fold="1" pageScale="1" pageWidth="850" pageHeight="1100" math="0" shadow="0">
      <root>
        <mxCell id="FVkChl7AJqCVRgVgOEgf-0" />
        <mxCell id="FVkChl7AJqCVRgVgOEgf-1" value="Diagram" parent="FVkChl7AJqCVRgVgOEgf-0" />
        <mxCell id="FVkChl7AJqCVRgVgOEgf-32" value="Tenants/{uuid}/Organisations" style="text;html=1;strokeColor=none;fillColor=none;align=left;verticalAlign=middle;whiteSpace=wrap;rounded=0;dashed=1;fontSize=12;fontFamily=Courier New;" vertex="1" parent="FVkChl7AJqCVRgVgOEgf-1">
          <mxGeometry x="160" y="340" width="200" height="20" as="geometry" />
        </mxCell>
        <mxCell id="FVkChl7AJqCVRgVgOEgf-33" value="List Organisations of&amp;nbsp; Tenant {uuid}&amp;nbsp;" style="text;html=1;strokeColor=none;fillColor=none;align=left;verticalAlign=middle;whiteSpace=wrap;rounded=0;dashed=1;fontFamily=Helvetica;fontSize=12;" vertex="1" parent="FVkChl7AJqCVRgVgOEgf-1">
          <mxGeometry x="400" y="340" width="320" height="20" as="geometry" />
        </mxCell>
        <mxCell id="FVkChl7AJqCVRgVgOEgf-34" value="List Organisations" style="text;html=1;strokeColor=none;fillColor=none;align=left;verticalAlign=middle;whiteSpace=wrap;rounded=0;dashed=1;fontFamily=Helvetica;fontSize=12;" vertex="1" parent="FVkChl7AJqCVRgVgOEgf-1">
          <mxGeometry x="400" y="280" width="320" height="20" as="geometry" />
        </mxCell>
        <mxCell id="FVkChl7AJqCVRgVgOEgf-35" value="Organisations" style="text;html=1;strokeColor=none;fillColor=none;align=left;verticalAlign=middle;whiteSpace=wrap;rounded=0;dashed=1;fontSize=12;fontFamily=Courier New;" vertex="1" parent="FVkChl7AJqCVRgVgOEgf-1">
          <mxGeometry x="160" y="280" width="200" height="20" as="geometry" />
        </mxCell>
        <mxCell id="FVkChl7AJqCVRgVgOEgf-36" value="Organisations(&#39;{uuid}&#39;)" style="text;html=1;strokeColor=none;fillColor=none;align=left;verticalAlign=middle;whiteSpace=wrap;rounded=0;dashed=1;fontSize=12;fontFamily=Courier New;" vertex="1" parent="FVkChl7AJqCVRgVgOEgf-1">
          <mxGeometry x="160" y="400" width="200" height="20" as="geometry" />
        </mxCell>
        <mxCell id="FVkChl7AJqCVRgVgOEgf-37" value="View Organisation {uuid}" style="text;html=1;strokeColor=none;fillColor=none;align=left;verticalAlign=middle;whiteSpace=wrap;rounded=0;dashed=1;fontFamily=Helvetica;fontSize=12;" vertex="1" parent="FVkChl7AJqCVRgVgOEgf-1">
          <mxGeometry x="400" y="400" width="320" height="20" as="geometry" />
        </mxCell>
        <mxCell id="FVkChl7AJqCVRgVgOEgf-38" value="GET" style="text;html=1;strokeColor=none;fillColor=none;align=left;verticalAlign=middle;whiteSpace=wrap;rounded=0;dashed=1;fontSize=12;fontFamily=Courier New;" vertex="1" parent="FVkChl7AJqCVRgVgOEgf-1">
          <mxGeometry x="120" y="280" width="40" height="20" as="geometry" />
        </mxCell>
        <mxCell id="FVkChl7AJqCVRgVgOEgf-39" value="GET" style="text;html=1;strokeColor=none;fillColor=none;align=left;verticalAlign=middle;whiteSpace=wrap;rounded=0;dashed=1;fontSize=12;fontFamily=Courier New;" vertex="1" parent="FVkChl7AJqCVRgVgOEgf-1">
          <mxGeometry x="120" y="340" width="40" height="20" as="geometry" />
        </mxCell>
        <mxCell id="FVkChl7AJqCVRgVgOEgf-40" value="GET" style="text;html=1;strokeColor=none;fillColor=none;align=left;verticalAlign=middle;whiteSpace=wrap;rounded=0;dashed=1;fontSize=12;fontFamily=Courier New;" vertex="1" parent="FVkChl7AJqCVRgVgOEgf-1">
          <mxGeometry x="120" y="400" width="40" height="20" as="geometry" />
        </mxCell>
        <mxCell id="FVkChl7AJqCVRgVgOEgf-41" value="POST" style="text;html=1;strokeColor=none;fillColor=none;align=left;verticalAlign=middle;whiteSpace=wrap;rounded=0;dashed=1;fontSize=12;fontFamily=Courier New;" vertex="1" parent="FVkChl7AJqCVRgVgOEgf-1">
          <mxGeometry x="120" y="440" width="40" height="20" as="geometry" />
        </mxCell>
        <mxCell id="FVkChl7AJqCVRgVgOEgf-42" value="Organisations" style="text;html=1;strokeColor=none;fillColor=none;align=left;verticalAlign=middle;whiteSpace=wrap;rounded=0;dashed=1;fontSize=12;fontFamily=Courier New;" vertex="1" parent="FVkChl7AJqCVRgVgOEgf-1">
          <mxGeometry x="160" y="440" width="200" height="20" as="geometry" />
        </mxCell>
        <mxCell id="FVkChl7AJqCVRgVgOEgf-43" value="POST" style="text;html=1;strokeColor=none;fillColor=none;align=left;verticalAlign=middle;whiteSpace=wrap;rounded=0;dashed=1;fontSize=12;fontFamily=Courier New;" vertex="1" parent="FVkChl7AJqCVRgVgOEgf-1">
          <mxGeometry x="120" y="460" width="40" height="20" as="geometry" />
        </mxCell>
        <mxCell id="FVkChl7AJqCVRgVgOEgf-44" value="Organisations(&#39;{uuid}&#39;)" style="text;html=1;strokeColor=none;fillColor=none;align=left;verticalAlign=middle;whiteSpace=wrap;rounded=0;dashed=1;fontSize=12;fontFamily=Courier New;" vertex="1" parent="FVkChl7AJqCVRgVgOEgf-1">
          <mxGeometry x="160" y="460" width="200" height="20" as="geometry" />
        </mxCell>
        <mxCell id="FVkChl7AJqCVRgVgOEgf-45" value="&lt;font style=&quot;font-size: 12px;&quot;&gt;Create Org, server side generated Id. &lt;b style=&quot;font-size: 12px;&quot;&gt;&lt;font color=&quot;#cc0000&quot; style=&quot;font-size: 12px;&quot;&gt;&lt;u style=&quot;font-size: 12px;&quot;&gt;NOT&lt;/u&gt;&lt;/font&gt; &lt;/b&gt;recommended.&lt;/font&gt;" style="text;html=1;strokeColor=none;fillColor=none;align=left;verticalAlign=middle;whiteSpace=wrap;rounded=0;dashed=1;fontFamily=Helvetica;fontSize=12;" vertex="1" parent="FVkChl7AJqCVRgVgOEgf-1">
          <mxGeometry x="400" y="440" width="320" height="20" as="geometry" />
        </mxCell>
        <mxCell id="FVkChl7AJqCVRgVgOEgf-46" value="&lt;font style=&quot;font-size: 11px&quot;&gt;Create Org, client side generated UUID. &lt;b style=&quot;font-size: 11px&quot;&gt;&lt;font color=&quot;#009900&quot; style=&quot;font-size: 11px&quot;&gt;RECOMMNEDED&lt;/font&gt;&lt;/b&gt;.&lt;/font&gt;" style="text;html=1;strokeColor=none;fillColor=none;align=left;verticalAlign=middle;whiteSpace=wrap;rounded=0;dashed=1;fontFamily=Helvetica;fontSize=11;" vertex="1" parent="FVkChl7AJqCVRgVgOEgf-1">
          <mxGeometry x="400" y="460" width="320" height="20" as="geometry" />
        </mxCell>
        <mxCell id="FVkChl7AJqCVRgVgOEgf-47" value="PUT" style="text;html=1;strokeColor=none;fillColor=none;align=left;verticalAlign=middle;whiteSpace=wrap;rounded=0;dashed=1;fontSize=12;fontFamily=Courier New;" vertex="1" parent="FVkChl7AJqCVRgVgOEgf-1">
          <mxGeometry x="120" y="420" width="40" height="20" as="geometry" />
        </mxCell>
        <mxCell id="FVkChl7AJqCVRgVgOEgf-48" value="Organisations(&#39;{uuid}&#39;)" style="text;html=1;strokeColor=none;fillColor=none;align=left;verticalAlign=middle;whiteSpace=wrap;rounded=0;dashed=1;fontSize=12;fontFamily=Courier New;" vertex="1" parent="FVkChl7AJqCVRgVgOEgf-1">
          <mxGeometry x="160" y="420" width="200" height="20" as="geometry" />
        </mxCell>
        <mxCell id="FVkChl7AJqCVRgVgOEgf-49" value="Create Organisation, client side generated UUID." style="text;html=1;strokeColor=none;fillColor=none;align=left;verticalAlign=middle;whiteSpace=wrap;rounded=0;dashed=1;fontFamily=Helvetica;fontSize=12;" vertex="1" parent="FVkChl7AJqCVRgVgOEgf-1">
          <mxGeometry x="400" y="420" width="320" height="20" as="geometry" />
        </mxCell>
        <mxCell id="FVkChl7AJqCVRgVgOEgf-50" value="DELETE" style="text;html=1;strokeColor=none;fillColor=none;align=left;verticalAlign=middle;whiteSpace=wrap;rounded=0;dashed=1;fontSize=10;fontFamily=Courier New;" vertex="1" parent="FVkChl7AJqCVRgVgOEgf-1">
          <mxGeometry x="120" y="480" width="40" height="20" as="geometry" />
        </mxCell>
        <mxCell id="FVkChl7AJqCVRgVgOEgf-51" value="Organisations(&#39;{uuid}&#39;)" style="text;html=1;strokeColor=none;fillColor=none;align=left;verticalAlign=middle;whiteSpace=wrap;rounded=0;dashed=1;fontSize=12;fontFamily=Courier New;" vertex="1" parent="FVkChl7AJqCVRgVgOEgf-1">
          <mxGeometry x="160" y="480" width="200" height="20" as="geometry" />
        </mxCell>
        <mxCell id="FVkChl7AJqCVRgVgOEgf-52" value="Delete Organisation {uuid}" style="text;html=1;strokeColor=none;fillColor=none;align=left;verticalAlign=middle;whiteSpace=wrap;rounded=0;dashed=1;fontFamily=Helvetica;fontSize=12;" vertex="1" parent="FVkChl7AJqCVRgVgOEgf-1">
          <mxGeometry x="400" y="480" width="320" height="20" as="geometry" />
        </mxCell>
        <mxCell id="FVkChl7AJqCVRgVgOEgf-53" value="&lt;font style=&quot;font-size: 11px&quot;&gt;List Orgs, page 3, using ODATA standard filter arguments.&lt;/font&gt;" style="text;html=1;strokeColor=none;fillColor=none;align=left;verticalAlign=middle;whiteSpace=wrap;rounded=0;dashed=1;fontFamily=Helvetica;fontSize=11;" vertex="1" parent="FVkChl7AJqCVRgVgOEgf-1">
          <mxGeometry x="400" y="320" width="320" height="20" as="geometry" />
        </mxCell>
        <mxCell id="FVkChl7AJqCVRgVgOEgf-54" value="&lt;font style=&quot;font-size: 10px&quot;&gt;Organisations?$top=80&amp;amp;$skip=60&lt;/font&gt;" style="text;html=1;strokeColor=none;fillColor=none;align=left;verticalAlign=middle;whiteSpace=wrap;rounded=0;dashed=1;fontSize=12;fontFamily=Courier New;" vertex="1" parent="FVkChl7AJqCVRgVgOEgf-1">
          <mxGeometry x="160" y="320" width="200" height="20" as="geometry" />
        </mxCell>
        <mxCell id="FVkChl7AJqCVRgVgOEgf-55" value="GET" style="text;html=1;strokeColor=none;fillColor=none;align=left;verticalAlign=middle;whiteSpace=wrap;rounded=0;dashed=1;fontSize=12;fontFamily=Courier New;" vertex="1" parent="FVkChl7AJqCVRgVgOEgf-1">
          <mxGeometry x="120" y="320" width="40" height="20" as="geometry" />
        </mxCell>
        <mxCell id="FVkChl7AJqCVRgVgOEgf-56" value="Count Organisations, using ODATA standard filter arguments." style="text;html=1;strokeColor=none;fillColor=none;align=left;verticalAlign=middle;whiteSpace=wrap;rounded=0;dashed=1;fontFamily=Helvetica;fontSize=11;" vertex="1" parent="FVkChl7AJqCVRgVgOEgf-1">
          <mxGeometry x="400" y="300" width="320" height="20" as="geometry" />
        </mxCell>
        <mxCell id="FVkChl7AJqCVRgVgOEgf-57" value="Organisations?$count=true" style="text;html=1;strokeColor=none;fillColor=none;align=left;verticalAlign=middle;whiteSpace=wrap;rounded=0;dashed=1;fontSize=12;fontFamily=Courier New;" vertex="1" parent="FVkChl7AJqCVRgVgOEgf-1">
          <mxGeometry x="160" y="300" width="200" height="20" as="geometry" />
        </mxCell>
        <mxCell id="FVkChl7AJqCVRgVgOEgf-58" value="GET" style="text;html=1;strokeColor=none;fillColor=none;align=left;verticalAlign=middle;whiteSpace=wrap;rounded=0;dashed=1;fontSize=12;fontFamily=Courier New;" vertex="1" parent="FVkChl7AJqCVRgVgOEgf-1">
          <mxGeometry x="120" y="300" width="40" height="20" as="geometry" />
        </mxCell>
        <mxCell id="FVkChl7AJqCVRgVgOEgf-59" value="Organisations?$search=xyz" style="text;html=1;strokeColor=none;fillColor=none;align=left;verticalAlign=middle;whiteSpace=wrap;rounded=0;dashed=1;fontSize=12;fontFamily=Courier New;" vertex="1" parent="FVkChl7AJqCVRgVgOEgf-1">
          <mxGeometry x="160" y="360" width="200" height="20" as="geometry" />
        </mxCell>
        <mxCell id="FVkChl7AJqCVRgVgOEgf-60" value="List Organisations that meet custom search criteria.&amp;nbsp;" style="text;html=1;strokeColor=none;fillColor=none;align=left;verticalAlign=middle;whiteSpace=wrap;rounded=0;dashed=1;fontFamily=Helvetica;fontSize=12;" vertex="1" parent="FVkChl7AJqCVRgVgOEgf-1">
          <mxGeometry x="400" y="360" width="320" height="20" as="geometry" />
        </mxCell>
        <mxCell id="FVkChl7AJqCVRgVgOEgf-61" value="GET" style="text;html=1;strokeColor=none;fillColor=none;align=left;verticalAlign=middle;whiteSpace=wrap;rounded=0;dashed=1;fontSize=12;fontFamily=Courier New;" vertex="1" parent="FVkChl7AJqCVRgVgOEgf-1">
          <mxGeometry x="120" y="360" width="40" height="20" as="geometry" />
        </mxCell>
        <mxCell id="FVkChl7AJqCVRgVgOEgf-65" value="Description" style="text;html=1;strokeColor=none;fillColor=#f5f5f5;align=left;verticalAlign=middle;whiteSpace=wrap;rounded=0;fontSize=12;fontFamily=Helvetica;fontColor=#333333;fontStyle=0" vertex="1" parent="FVkChl7AJqCVRgVgOEgf-1">
          <mxGeometry x="400" y="200" width="320" height="20" as="geometry" />
        </mxCell>
        <mxCell id="FVkChl7AJqCVRgVgOEgf-66" value="URL" style="text;html=1;strokeColor=none;fillColor=#f5f5f5;align=left;verticalAlign=middle;whiteSpace=wrap;rounded=0;fontSize=12;fontFamily=Helvetica;fontColor=#333333;fontStyle=0" vertex="1" parent="FVkChl7AJqCVRgVgOEgf-1">
          <mxGeometry x="160" y="200" width="230" height="20" as="geometry" />
        </mxCell>
        <mxCell id="FVkChl7AJqCVRgVgOEgf-67" value="&lt;font style=&quot;font-size: 10px;&quot;&gt;VERB&lt;/font&gt;" style="text;html=1;strokeColor=none;fillColor=#f5f5f5;align=left;verticalAlign=middle;whiteSpace=wrap;rounded=0;fontSize=10;fontFamily=Helvetica;fontColor=#333333;fontStyle=0" vertex="1" parent="FVkChl7AJqCVRgVgOEgf-1">
          <mxGeometry x="120" y="200" width="30" height="20" as="geometry" />
        </mxCell>
        <mxCell id="FVkChl7AJqCVRgVgOEgf-68" value="&lt;font style=&quot;font-size: 9px&quot;&gt;&lt;span style=&quot;font-size: 10px&quot;&gt;SummaryItems&lt;/span&gt;?$search=Organisation,abc:xyz&lt;/font&gt;" style="text;html=1;strokeColor=none;fillColor=none;align=left;verticalAlign=middle;whiteSpace=wrap;rounded=0;dashed=1;fontSize=9;fontFamily=Courier New;" vertex="1" parent="FVkChl7AJqCVRgVgOEgf-1">
          <mxGeometry x="160" y="240" width="250" height="20" as="geometry" />
        </mxCell>
        <mxCell id="FVkChl7AJqCVRgVgOEgf-69" value="GET" style="text;html=1;strokeColor=none;fillColor=none;align=left;verticalAlign=middle;whiteSpace=wrap;rounded=0;dashed=1;fontSize=12;fontFamily=Courier New;" vertex="1" parent="FVkChl7AJqCVRgVgOEgf-1">
          <mxGeometry x="120" y="240" width="40" height="20" as="geometry" />
        </mxCell>
        <mxCell id="FVkChl7AJqCVRgVgOEgf-70" value="&lt;font style=&quot;font-size: 10px&quot;&gt;SummaryItems?$search=Organisation:xyz&lt;/font&gt;" style="text;html=1;strokeColor=none;fillColor=none;align=left;verticalAlign=middle;whiteSpace=wrap;rounded=0;dashed=1;fontSize=10;fontFamily=Courier New;" vertex="1" parent="FVkChl7AJqCVRgVgOEgf-1">
          <mxGeometry x="160" y="220" width="240" height="20" as="geometry" />
        </mxCell>
        <mxCell id="FVkChl7AJqCVRgVgOEgf-71" value="GET" style="text;html=1;strokeColor=none;fillColor=none;align=left;verticalAlign=middle;whiteSpace=wrap;rounded=0;dashed=1;fontSize=12;fontFamily=Courier New;" vertex="1" parent="FVkChl7AJqCVRgVgOEgf-1">
          <mxGeometry x="120" y="220" width="40" height="20" as="geometry" />
        </mxCell>
        <mxCell id="FVkChl7AJqCVRgVgOEgf-72" value="List SummaryItems of type Organisation custom matching xyz" style="text;html=1;strokeColor=none;fillColor=none;align=left;verticalAlign=middle;whiteSpace=wrap;rounded=0;dashed=1;fontFamily=Helvetica;fontSize=11;" vertex="1" parent="FVkChl7AJqCVRgVgOEgf-1">
          <mxGeometry x="400" y="220" width="320" height="20" as="geometry" />
        </mxCell>
        <mxCell id="FVkChl7AJqCVRgVgOEgf-73" value="List SummaryItems of type Organisation&amp;nbsp;&amp;amp; abc matching xyz" style="text;html=1;strokeColor=none;fillColor=none;align=left;verticalAlign=middle;whiteSpace=wrap;rounded=0;dashed=1;fontFamily=Helvetica;fontSize=11;" vertex="1" parent="FVkChl7AJqCVRgVgOEgf-1">
          <mxGeometry x="400" y="240" width="320" height="20" as="geometry" />
        </mxCell>
        <mxCell id="FVkChl7AJqCVRgVgOEgf-83" value="Context/Legend" parent="FVkChl7AJqCVRgVgOEgf-0" />
        <mxCell id="FVkChl7AJqCVRgVgOEgf-84" value="Title/Diagram" parent="FVkChl7AJqCVRgVgOEgf-0" />
        <mxCell id="FVkChl7AJqCVRgVgOEgf-85" value="&lt;font style=&quot;font-size: 12px ; font-weight: normal&quot;&gt;&lt;i&gt;Diagram: Base System Logical Module -&amp;nbsp;&lt;/i&gt;&lt;i&gt;Interoperability&amp;nbsp;&lt;/i&gt;&lt;i&gt;- APIs - Organisations&lt;/i&gt;&lt;/font&gt;" style="text;strokeColor=none;fillColor=none;html=1;fontSize=12;fontStyle=1;verticalAlign=middle;align=left;shadow=0;glass=0;comic=0;opacity=30;fontColor=#808080;" vertex="1" parent="FVkChl7AJqCVRgVgOEgf-84">
          <mxGeometry x="120" y="540" width="560" height="20" as="geometry" />
        </mxCell>
        <mxCell id="FVkChl7AJqCVRgVgOEgf-86" value="Title/Page" visible="0" parent="FVkChl7AJqCVRgVgOEgf-0" />
        <mxCell id="FVkChl7AJqCVRgVgOEgf-88" value="" style="group;fontSize=12;" vertex="1" connectable="0" parent="FVkChl7AJqCVRgVgOEgf-86">
          <mxGeometry x="120" y="120" width="600" height="45" as="geometry" />
        </mxCell>
        <mxCell id="FVkChl7AJqCVRgVgOEgf-89" value="&lt;font style=&quot;font-size: 12px&quot;&gt;Base Logical Module - Interoperability&amp;nbsp;- APIs - Organisations&lt;/font&gt;" style="text;strokeColor=none;fillColor=none;html=1;fontSize=12;fontStyle=1;verticalAlign=middle;align=left;shadow=0;glass=0;comic=0;opacity=30;fontColor=#808080;" vertex="1" parent="FVkChl7AJqCVRgVgOEgf-88">
          <mxGeometry y="20" width="600" height="20" as="geometry" />
        </mxCell>
        <mxCell id="FVkChl7AJqCVRgVgOEgf-90" value="" style="line;strokeWidth=2;html=1;shadow=0;glass=0;comic=0;fillColor=none;fontSize=10;fontColor=#CCCCCC;labelBackgroundColor=none;strokeColor=#CCCCCC;" vertex="1" parent="FVkChl7AJqCVRgVgOEgf-88">
          <mxGeometry y="35" width="600" height="10" as="geometry" />
        </mxCell>
        <mxCell id="FVkChl7AJqCVRgVgOEgf-87" value="About" parent="FVkChl7AJqCVRgVgOEgf-0" />
      </root>
    </mxGraphModel>
  </diagram>
</mxfile>
